<?xml version="1.0" encoding="utf-8"?>
<!-- Generator: Adobe Illustrator 23.0.3, SVG Export Plug-In . SVG Version: 6.00 Build 0)  -->
<svg version="1.1" id="Layer_1" xmlns="http://www.w3.org/2000/svg" xmlns:xlink="http://www.w3.org/1999/xlink" x="0px" y="0px"
	 viewBox="0 0 165 75" style="enable-background:new 0 0 165 75;" xml:space="preserve">
<style type="text/css">
	.st0{fill:#FFFFFF;}
</style>
<g>
	<path class="st0" d="M72.98,24.67V0.06h18.38v24.62H72.98z M72.98,75V40.17h18.38V75H72.98z"/>
	<path class="st0" d="M109.73,25.17V0.56h18.38v24.62H109.73z M109.73,74.41V49.79h18.38v24.62H109.73z M128.1,49.79V25.17h18.38
		v24.62H128.1z M146.48,25.17V0.56h18.38v24.62H146.48z M146.48,74.41V49.79h18.38v24.62H146.48z"/>
</g>
<g>
	<path class="st0" d="M0.48,75V0.02h13.7v15h13.71v15H14.18V75H0.48z M41.59,75v-30h-13.7v-15h13.7v-30h13.7V75H41.59z"/>
</g>
</svg>
